# Agartha original vase exported as triangulated OBJ
v 0.45 0 0
v 0.43466662183008076 0 0.11646857029613433
v 0.38971143170299744 0 0.22499999999999998
v 0.3181980515339464 0 0.31819805153394637
v 0.22500000000000006 0 0.3897114317029974
v 0.11646857029613433 0 0.43466662183008076
v 2.7554552980815448e-17 0 0.45
v -0.11646857029613439 0 0.43466662183008076
v -0.2249999999999999 0 0.38971143170299744
v -0.31819805153394637 0 0.3181980515339464
v -0.38971143170299744 0 0.22499999999999998
v -0.4346666218300807 0 0.11646857029613446
v -0.45 0 5.5109105961630896e-17
v -0.4346666218300808 0 -0.11646857029613417
v -0.3897114317029974 0 -0.22500000000000006
v -0.3181980515339465 0 -0.31819805153394637
v -0.2250000000000002 0 -0.3897114317029973
v -0.11646857029613429 0 -0.43466662183008076
v -8.266365894244634e-17 0 -0.45
v 0.11646857029613414 0 -0.4346666218300808
v 0.22500000000000006 0 -0.3897114317029974
v 0.3181980515339463 0 -0.3181980515339465
v 0.38971143170299727 0 -0.2250000000000002
v 0.43466662183008076 0 -0.1164685702961343
v 0.45 0 -1.1021821192326179e-16
v 0.65 0.15 0
v 0.6278517870878945 0.15 0.16823237931663848
v 0.5629165124598852 0.15 0.32499999999999996
v 0.45961940777125593 0.15 0.4596194077712559
v 0.32500000000000007 0.15 0.562916512459885
v 0.16823237931663848 0.15 0.6278517870878945
v 3.9801020972288984e-17 0.15 0.65
v -0.16823237931663856 0.15 0.6278517870878945
v -0.32499999999999984 0.15 0.5629165124598852
v -0.4596194077712559 0.15 0.45961940777125593
v -0.5629165124598852 0.15 0.32499999999999996
v -0.6278517870878944 0.15 0.16823237931663867
v -0.65 0.15 7.960204194457797e-17
v -0.6278517870878945 0.15 -0.16823237931663823
v -0.562916512459885 0.15 -0.32500000000000007
v -0.459619407771256 0.15 -0.4596194077712559
v -0.3250000000000003 0.15 -0.562916512459885
v -0.16823237931663843 0.15 -0.6278517870878945
v -1.1940306291686693e-16 0.15 -0.65
v 0.1682323793166382 0.15 -0.6278517870878945
v 0.32500000000000007 0.15 -0.562916512459885
v 0.4596194077712558 0.15 -0.459619407771256
v 0.5629165124598849 0.15 -0.3250000000000003
v 0.6278517870878945 0.15 -0.16823237931663845
v 0.65 0.15 -1.5920408388915593e-16
v 0.9 0.65 0
v 0.8693332436601615 0.65 0.23293714059226867
v 0.7794228634059949 0.65 0.44999999999999996
v 0.6363961030678928 0.65 0.6363961030678927
v 0.4500000000000001 0.65 0.7794228634059948
v 0.23293714059226867 0.65 0.8693332436601615
v 5.5109105961630896e-17 0.65 0.9
v -0.23293714059226878 0.65 0.8693332436601615
v -0.4499999999999998 0.65 0.7794228634059949
v -0.6363961030678927 0.65 0.6363961030678928
v -0.7794228634059949 0.65 0.44999999999999996
v -0.8693332436601614 0.65 0.23293714059226892
v -0.9 0.65 1.1021821192326179e-16
v -0.8693332436601616 0.65 -0.23293714059226833
v -0.7794228634059948 0.65 -0.4500000000000001
v -0.636396103067893 0.65 -0.6363961030678927
v -0.4500000000000004 0.65 -0.7794228634059946
v -0.23293714059226858 0.65 -0.8693332436601615
v -1.6532731788489269e-16 0.65 -0.9
v 0.23293714059226828 0.65 -0.8693332436601616
v 0.4500000000000001 0.65 -0.7794228634059948
v 0.6363961030678926 0.65 -0.636396103067893
v 0.7794228634059945 0.65 -0.4500000000000004
v 0.8693332436601615 0.65 -0.2329371405922686
v 0.9 0.65 -2.2043642384652358e-16
v 0.85 1.15 0
v 0.8210369523457081 1.15 0.21999618833714263
v 0.7361215932167728 1.15 0.42499999999999993
v 0.6010407640085654 1.15 0.6010407640085653
v 0.4250000000000001 1.15 0.7361215932167728
v 0.21999618833714263 1.15 0.8210369523457081
v 5.204748896376251e-17 1.15 0.85
v -0.2199961883371427 1.15 0.8210369523457081
v -0.4249999999999998 1.15 0.7361215932167728
v -0.6010407640085653 1.15 0.6010407640085654
v -0.7361215932167728 1.15 0.42499999999999993
v -0.821036952345708 1.15 0.21999618833714285
v -0.85 1.15 1.0409497792752501e-16
v -0.8210369523457082 1.15 -0.2199961883371423
v -0.7361215932167728 1.15 -0.4250000000000001
v -0.6010407640085655 1.15 -0.6010407640085653
v -0.4250000000000004 1.15 -0.7361215932167727
v -0.21999618833714252 1.15 -0.8210369523457081
v -1.5614246689128752e-16 1.15 -0.85
v 0.21999618833714224 1.15 -0.8210369523457082
v 0.4250000000000001 1.15 -0.7361215932167728
v 0.6010407640085652 1.15 -0.6010407640085655
v 0.7361215932167726 1.15 -0.4250000000000004
v 0.8210369523457081 1.15 -0.21999618833714257
v 0.85 1.15 -2.0818995585505003e-16
v 0.5 1.65 0
v 0.48296291314453416 1.65 0.12940952255126037
v 0.43301270189221935 1.65 0.24999999999999997
v 0.3535533905932738 1.65 0.35355339059327373
v 0.25000000000000006 1.65 0.4330127018922193
v 0.12940952255126037 1.65 0.48296291314453416
v 3.061616997868383e-17 1.65 0.5
v -0.12940952255126043 1.65 0.48296291314453416
v -0.2499999999999999 1.65 0.43301270189221935
v -0.35355339059327373 1.65 0.3535533905932738
v -0.43301270189221935 1.65 0.24999999999999997
v -0.4829629131445341 1.65 0.1294095225512605
v -0.5 1.65 6.123233995736766e-17
v -0.4829629131445342 1.65 -0.12940952255126018
v -0.4330127018922193 1.65 -0.25000000000000006
v -0.35355339059327384 1.65 -0.35355339059327373
v -0.2500000000000002 1.65 -0.43301270189221924
v -0.12940952255126031 1.65 -0.48296291314453416
v -9.184850993605148e-17 1.65 -0.5
v 0.12940952255126015 1.65 -0.4829629131445342
v 0.25000000000000006 1.65 -0.4330127018922193
v 0.3535533905932737 1.65 -0.35355339059327384
v 0.4330127018922192 1.65 -0.2500000000000002
v 0.48296291314453416 1.65 -0.12940952255126034
v 0.5 1.65 -1.2246467991473532e-16
v 0.4 2 0
v 0.38637033051562736 2 0.1035276180410083
v 0.3464101615137755 2 0.19999999999999998
v 0.28284271247461906 2 0.282842712474619
v 0.20000000000000007 2 0.34641016151377546
v 0.1035276180410083 2 0.38637033051562736
v 2.4492935982947065e-17 2 0.4
v -0.10352761804100835 2 0.38637033051562736
v -0.19999999999999993 2 0.3464101615137755
v -0.282842712474619 2 0.28284271247461906
v -0.3464101615137755 2 0.19999999999999998
v -0.3863703305156273 2 0.1035276180410084
v -0.4 2 4.898587196589413e-17
v -0.3863703305156274 2 -0.10352761804100814
v -0.34641016151377546 2 -0.20000000000000007
v -0.28284271247461906 2 -0.282842712474619
v -0.20000000000000018 2 -0.3464101615137754
v -0.10352761804100825 2 -0.38637033051562736
v -7.347880794884119e-17 2 -0.4
v 0.10352761804100813 2 -0.3863703305156274
v 0.20000000000000007 2 -0.34641016151377546
v 0.28284271247461895 2 -0.28284271247461906
v 0.34641016151377535 2 -0.20000000000000018
v 0.38637033051562736 2 -0.10352761804100828
v 0.4 2 -9.797174393178826e-17
v 0.52 2.1 0
v 0.5022814296703155 2.1 0.13458590345331078
v 0.45033320996790815 2.1 0.25999999999999995
v 0.36769552621700474 2.1 0.3676955262170047
v 0.26000000000000006 2.1 0.4503332099679081
v 0.13458590345331078 2.1 0.5022814296703155
v 3.1840816777831187e-17 2.1 0.52
v -0.13458590345331084 2.1 0.5022814296703155
v -0.2599999999999999 2.1 0.45033320996790815
v -0.3676955262170047 2.1 0.36769552621700474
v -0.45033320996790815 2.1 0.25999999999999995
v -0.5022814296703155 2.1 0.13458590345331092
v -0.52 2.1 6.368163355566237e-17
v -0.5022814296703156 2.1 -0.1345859034533106
v -0.4503332099679081 2.1 -0.26000000000000006
v -0.3676955262170048 2.1 -0.3676955262170047
v -0.26000000000000023 2.1 -0.45033320996790804
v -0.13458590345331073 2.1 -0.5022814296703155
v -9.552245033349355e-17 2.1 -0.52
v 0.13458590345331056 2.1 -0.5022814296703156
v 0.26000000000000006 2.1 -0.4503332099679081
v 0.36769552621700463 2.1 -0.3676955262170048
v 0.450333209967908 2.1 -0.26000000000000023
v 0.5022814296703155 2.1 -0.13458590345331076
v 0.52 2.1 -1.2736326711132475e-16
vt 0 0
vt 0.041666666666666664 0
vt 0.08333333333333333 0
vt 0.125 0
vt 0.16666666666666666 0
vt 0.20833333333333334 0
vt 0.25 0
vt 0.2916666666666667 0
vt 0.3333333333333333 0
vt 0.375 0
vt 0.4166666666666667 0
vt 0.4583333333333333 0
vt 0.5 0
vt 0.5416666666666666 0
vt 0.5833333333333334 0
vt 0.625 0
vt 0.6666666666666666 0
vt 0.7083333333333334 0
vt 0.75 0
vt 0.7916666666666666 0
vt 0.8333333333333334 0
vt 0.875 0
vt 0.9166666666666666 0
vt 0.9583333333333334 0
vt 1 0
vt 0 0.16666666666666666
vt 0.041666666666666664 0.16666666666666666
vt 0.08333333333333333 0.16666666666666666
vt 0.125 0.16666666666666666
vt 0.16666666666666666 0.16666666666666666
vt 0.20833333333333334 0.16666666666666666
vt 0.25 0.16666666666666666
vt 0.2916666666666667 0.16666666666666666
vt 0.3333333333333333 0.16666666666666666
vt 0.375 0.16666666666666666
vt 0.4166666666666667 0.16666666666666666
vt 0.4583333333333333 0.16666666666666666
vt 0.5 0.16666666666666666
vt 0.5416666666666666 0.16666666666666666
vt 0.5833333333333334 0.16666666666666666
vt 0.625 0.16666666666666666
vt 0.6666666666666666 0.16666666666666666
vt 0.7083333333333334 0.16666666666666666
vt 0.75 0.16666666666666666
vt 0.7916666666666666 0.16666666666666666
vt 0.8333333333333334 0.16666666666666666
vt 0.875 0.16666666666666666
vt 0.9166666666666666 0.16666666666666666
vt 0.9583333333333334 0.16666666666666666
vt 1 0.16666666666666666
vt 0 0.3333333333333333
vt 0.041666666666666664 0.3333333333333333
vt 0.08333333333333333 0.3333333333333333
vt 0.125 0.3333333333333333
vt 0.16666666666666666 0.3333333333333333
vt 0.20833333333333334 0.3333333333333333
vt 0.25 0.3333333333333333
vt 0.2916666666666667 0.3333333333333333
vt 0.3333333333333333 0.3333333333333333
vt 0.375 0.3333333333333333
vt 0.4166666666666667 0.3333333333333333
vt 0.4583333333333333 0.3333333333333333
vt 0.5 0.3333333333333333
vt 0.5416666666666666 0.3333333333333333
vt 0.5833333333333334 0.3333333333333333
vt 0.625 0.3333333333333333
vt 0.6666666666666666 0.3333333333333333
vt 0.7083333333333334 0.3333333333333333
vt 0.75 0.3333333333333333
vt 0.7916666666666666 0.3333333333333333
vt 0.8333333333333334 0.3333333333333333
vt 0.875 0.3333333333333333
vt 0.9166666666666666 0.3333333333333333
vt 0.9583333333333334 0.3333333333333333
vt 1 0.3333333333333333
vt 0 0.5
vt 0.041666666666666664 0.5
vt 0.08333333333333333 0.5
vt 0.125 0.5
vt 0.16666666666666666 0.5
vt 0.20833333333333334 0.5
vt 0.25 0.5
vt 0.2916666666666667 0.5
vt 0.3333333333333333 0.5
vt 0.375 0.5
vt 0.4166666666666667 0.5
vt 0.4583333333333333 0.5
vt 0.5 0.5
vt 0.5416666666666666 0.5
vt 0.5833333333333334 0.5
vt 0.625 0.5
vt 0.6666666666666666 0.5
vt 0.7083333333333334 0.5
vt 0.75 0.5
vt 0.7916666666666666 0.5
vt 0.8333333333333334 0.5
vt 0.875 0.5
vt 0.9166666666666666 0.5
vt 0.9583333333333334 0.5
vt 1 0.5
vt 0 0.6666666666666666
vt 0.041666666666666664 0.6666666666666666
vt 0.08333333333333333 0.6666666666666666
vt 0.125 0.6666666666666666
vt 0.16666666666666666 0.6666666666666666
vt 0.20833333333333334 0.6666666666666666
vt 0.25 0.6666666666666666
vt 0.2916666666666667 0.6666666666666666
vt 0.3333333333333333 0.6666666666666666
vt 0.375 0.6666666666666666
vt 0.4166666666666667 0.6666666666666666
vt 0.4583333333333333 0.6666666666666666
vt 0.5 0.6666666666666666
vt 0.5416666666666666 0.6666666666666666
vt 0.5833333333333334 0.6666666666666666
vt 0.625 0.6666666666666666
vt 0.6666666666666666 0.6666666666666666
vt 0.7083333333333334 0.6666666666666666
vt 0.75 0.6666666666666666
vt 0.7916666666666666 0.6666666666666666
vt 0.8333333333333334 0.6666666666666666
vt 0.875 0.6666666666666666
vt 0.9166666666666666 0.6666666666666666
vt 0.9583333333333334 0.6666666666666666
vt 1 0.6666666666666666
vt 0 0.8333333333333334
vt 0.041666666666666664 0.8333333333333334
vt 0.08333333333333333 0.8333333333333334
vt 0.125 0.8333333333333334
vt 0.16666666666666666 0.8333333333333334
vt 0.20833333333333334 0.8333333333333334
vt 0.25 0.8333333333333334
vt 0.2916666666666667 0.8333333333333334
vt 0.3333333333333333 0.8333333333333334
vt 0.375 0.8333333333333334
vt 0.4166666666666667 0.8333333333333334
vt 0.4583333333333333 0.8333333333333334
vt 0.5 0.8333333333333334
vt 0.5416666666666666 0.8333333333333334
vt 0.5833333333333334 0.8333333333333334
vt 0.625 0.8333333333333334
vt 0.6666666666666666 0.8333333333333334
vt 0.7083333333333334 0.8333333333333334
vt 0.75 0.8333333333333334
vt 0.7916666666666666 0.8333333333333334
vt 0.8333333333333334 0.8333333333333334
vt 0.875 0.8333333333333334
vt 0.9166666666666666 0.8333333333333334
vt 0.9583333333333334 0.8333333333333334
vt 1 0.8333333333333334
vt 0 1
vt 0.041666666666666664 1
vt 0.08333333333333333 1
vt 0.125 1
vt 0.16666666666666666 1
vt 0.20833333333333334 1
vt 0.25 1
vt 0.2916666666666667 1
vt 0.3333333333333333 1
vt 0.375 1
vt 0.4166666666666667 1
vt 0.4583333333333333 1
vt 0.5 1
vt 0.5416666666666666 1
vt 0.5833333333333334 1
vt 0.625 1
vt 0.6666666666666666 1
vt 0.7083333333333334 1
vt 0.75 1
vt 0.7916666666666666 1
vt 0.8333333333333334 1
vt 0.875 1
vt 0.9166666666666666 1
vt 0.9583333333333334 1
vt 1 1
vn 0.6 -0.8 0
vn 0.579555495773441 -0.8 0.15529142706151244
vn 0.5196152422706632 -0.8 0.29999999999999993
vn 0.4242640687119285 -0.8 0.42426406871192845
vn 0.30000000000000004 -0.8 0.5196152422706631
vn 0.15529142706151244 -0.8 0.579555495773441
vn 3.6739403974420595e-17 -0.8 0.6
vn -0.1552914270615125 -0.8 0.579555495773441
vn -0.2999999999999999 -0.8 0.5196152422706632
vn -0.42426406871192845 -0.8 0.4242640687119285
vn -0.5196152422706632 -0.8 0.29999999999999993
vn -0.5795554957734409 -0.8 0.1552914270615126
vn -0.6 -0.8 7.347880794884119e-17
vn -0.579555495773441 -0.8 -0.1552914270615122
vn -0.5196152422706631 -0.8 -0.30000000000000004
vn -0.4242640687119286 -0.8 -0.42426406871192845
vn -0.30000000000000027 -0.8 -0.519615242270663
vn -0.15529142706151236 -0.8 -0.579555495773441
vn -1.1021821192326178e-16 -0.8 -0.6
vn 0.15529142706151217 -0.8 -0.579555495773441
vn 0.30000000000000004 -0.8 -0.5196152422706631
vn 0.4242640687119284 -0.8 -0.4242640687119286
vn 0.519615242270663 -0.8 -0.30000000000000027
vn 0.579555495773441 -0.8 -0.15529142706151242
vn 0.6 -0.8 -1.4695761589768238e-16
vn 0.8221921916437787 -0.5692099788303082 0
vn 0.7941766720819369 -0.5692099788303082 0.2127989979319915
vn 0.7120393247567159 -0.5692099788303082 0.4110960958218892
vn 0.5813776741499453 -0.5692099788303082 0.5813776741499452
vn 0.4110960958218894 -0.5692099788303082 0.7120393247567158
vn 0.2127989979319915 -0.5692099788303082 0.7941766720819369
vn 5.0344751789025036e-17 -0.5692099788303082 0.8221921916437787
vn -0.2127989979319916 -0.5692099788303082 0.7941766720819369
vn -0.4110960958218891 -0.5692099788303082 0.7120393247567159
vn -0.5813776741499452 -0.5692099788303082 0.5813776741499453
vn -0.7120393247567159 -0.5692099788303082 0.4110960958218892
vn -0.7941766720819368 -0.5692099788303082 0.21279899793199175
vn -0.8221921916437787 -0.5692099788303082 1.0068950357805007e-16
vn -0.7941766720819369 -0.5692099788303082 -0.2127989979319912
vn -0.7120393247567158 -0.5692099788303082 -0.4110960958218894
vn -0.5813776741499455 -0.5692099788303082 -0.5813776741499452
vn -0.41109609582188966 -0.5692099788303082 -0.7120393247567158
vn -0.21279899793199145 -0.5692099788303082 -0.7941766720819369
vn -1.5103425536707508e-16 -0.5692099788303082 -0.8221921916437787
vn 0.21279899793199114 -0.5692099788303082 -0.7941766720819369
vn 0.4110960958218894 -0.5692099788303082 -0.7120393247567158
vn 0.5813776741499452 -0.5692099788303082 -0.5813776741499455
vn 0.7120393247567157 -0.5692099788303082 -0.41109609582188966
vn 0.7941766720819369 -0.5692099788303082 -0.21279899793199147
vn 0.8221921916437787 -0.5692099788303082 -2.0137900715610014e-16
vn 0.9805806756909202 -0.19611613513818402 0
vn 0.947168199409845 -0.19611613513818402 0.2537929541283085
vn 0.8492077756084468 -0.19611613513818402 0.49029033784546006
vn 0.6933752452815365 -0.19611613513818402 0.6933752452815364
vn 0.49029033784546017 -0.19611613513818402 0.8492077756084467
vn 0.2537929541283085 -0.19611613513818402 0.947168199409845
vn 6.004324928953171e-17 -0.19611613513818402 0.9805806756909202
vn -0.2537929541283086 -0.19611613513818402 0.947168199409845
vn -0.4902903378454599 -0.19611613513818402 0.8492077756084468
vn -0.6933752452815364 -0.19611613513818402 0.6933752452815365
vn -0.8492077756084468 -0.19611613513818402 0.49029033784546006
vn -0.9471681994098449 -0.19611613513818402 0.25379295412830877
vn -0.9805806756909202 -0.19611613513818402 1.2008649857906342e-16
vn -0.9471681994098451 -0.19611613513818402 -0.25379295412830816
vn -0.8492077756084467 -0.19611613513818402 -0.49029033784546017
vn -0.6933752452815366 -0.19611613513818402 -0.6933752452815364
vn -0.4902903378454605 -0.19611613513818402 -0.8492077756084466
vn -0.2537929541283084 -0.19611613513818402 -0.947168199409845
vn -1.801297478685951e-16 -0.19611613513818402 -0.9805806756909202
vn 0.2537929541283081 -0.19611613513818402 -0.9471681994098451
vn 0.49029033784546017 -0.19611613513818402 -0.8492077756084467
vn 0.6933752452815363 -0.19611613513818402 -0.6933752452815366
vn 0.8492077756084465 -0.19611613513818402 -0.4902903378454605
vn 0.947168199409845 -0.19611613513818402 -0.25379295412830843
vn 0.9805806756909202 -0.19611613513818402 -2.4017299715812683e-16
vn 0.9284766908852593 0.3713906763541038 0
vn 0.896839614833484 0.3713906763541038 0.2403074505348711
vn 0.8040844011283461 0.3713906763541038 0.4642383454426296
vn 0.6565321642986127 0.3713906763541038 0.6565321642986126
vn 0.4642383454426297 0.3713906763541038 0.804084401128346
vn 0.2403074505348711 0.3713906763541038 0.896839614833484
vn 5.685280037877795e-17 0.3713906763541038 0.9284766908852593
vn -0.2403074505348712 0.3713906763541038 0.896839614833484
vn -0.46423834544262943 0.3713906763541038 0.8040844011283461
vn -0.6565321642986126 0.3713906763541038 0.6565321642986127
vn -0.8040844011283461 0.3713906763541038 0.4642383454426296
vn -0.8968396148334838 0.3713906763541038 0.24030745053487135
vn -0.9284766908852593 0.3713906763541038 1.137056007575559e-16
vn -0.8968396148334841 0.3713906763541038 -0.24030745053487074
vn -0.804084401128346 0.3713906763541038 -0.4642383454426297
vn -0.6565321642986128 0.3713906763541038 -0.6565321642986126
vn -0.46423834544263 0.3713906763541038 -0.8040844011283459
vn -0.240307450534871 0.3713906763541038 -0.896839614833484
vn -1.7055840113633387e-16 0.3713906763541038 -0.9284766908852593
vn 0.24030745053487068 0.3713906763541038 -0.8968396148334841
vn 0.4642383454426297 0.3713906763541038 -0.804084401128346
vn 0.6565321642986126 0.3713906763541038 -0.6565321642986128
vn 0.8040844011283458 0.3713906763541038 -0.46423834544263
vn 0.896839614833484 0.3713906763541038 -0.24030745053487104
vn 0.9284766908852593 0.3713906763541038 -2.274112015151118e-16
vn 0.8837879163470619 0.46788772041903265 0
vn 0.8536735733618297 0.46788772041903265 0.22874114458209302
vn 0.765382787114272 0.46788772041903265 0.4418939581735309
vn 0.6249324287797368 0.46788772041903265 0.6249324287797366
vn 0.44189395817353105 0.46788772041903265 0.7653827871142719
vn 0.22874114458209302 0.46788772041903265 0.8536735733618297
vn 5.4116402143976904e-17 0.46788772041903265 0.8837879163470619
vn -0.2287411445820931 0.46788772041903265 0.8536735733618297
vn -0.4418939581735307 0.46788772041903265 0.765382787114272
vn -0.6249324287797366 0.46788772041903265 0.6249324287797368
vn -0.765382787114272 0.46788772041903265 0.4418939581735309
vn -0.8536735733618296 0.46788772041903265 0.22874114458209327
vn -0.8837879163470619 0.46788772041903265 1.0823280428795381e-16
vn -0.8536735733618298 0.46788772041903265 -0.2287411445820927
vn -0.7653827871142719 0.46788772041903265 -0.44189395817353105
vn -0.6249324287797368 0.46788772041903265 -0.6249324287797366
vn -0.44189395817353133 0.46788772041903265 -0.7653827871142719
vn -0.2287411445820929 0.46788772041903265 -0.8536735733618297
vn -1.623492064319307e-16 0.46788772041903265 -0.8837879163470619
vn 0.22874114458209263 0.46788772041903265 -0.8536735733618298
vn 0.44189395817353105 0.46788772041903265 -0.7653827871142719
vn 0.6249324287797364 0.46788772041903265 -0.6249324287797368
vn 0.7653827871142717 0.46788772041903265 -0.44189395817353133
vn 0.8536735733618297 0.46788772041903265 -0.22874114458209296
vn 0.8837879163470619 0.46788772041903265 -2.1646560857590762e-16
vn 0.9990138064662089 -0.04440061362072041 0
vn 0.9649732364850602 -0.04440061362072041 0.25856379943381863
vn 0.8651713351311275 -0.04440061362072041 0.49950690323310437
vn 0.7064094370512415 -0.04440061362072041 0.7064094370512414
vn 0.49950690323310454 -0.04440061362072041 0.8651713351311275
vn 0.25856379943381863 -0.04440061362072041 0.9649732364850602
vn 6.11719530196428e-17 -0.04440061362072041 0.9990138064662089
vn -0.25856379943381874 -0.04440061362072041 0.9649732364850602
vn -0.49950690323310415 -0.04440061362072041 0.8651713351311275
vn -0.7064094370512414 -0.04440061362072041 0.7064094370512415
vn -0.8651713351311275 -0.04440061362072041 0.49950690323310437
vn -0.9649732364850601 -0.04440061362072041 0.2585637994338189
vn -0.9990138064662089 -0.04440061362072041 1.223439060392856e-16
vn -0.9649732364850603 -0.04440061362072041 -0.25856379943381824
vn -0.8651713351311275 -0.04440061362072041 -0.49950690323310454
vn -0.7064094370512416 -0.04440061362072041 -0.7064094370512414
vn -0.49950690323310487 -0.04440061362072041 -0.8651713351311274
vn -0.2585637994338185 -0.04440061362072041 -0.9649732364850602
vn -1.8351585905892839e-16 -0.04440061362072041 -0.9990138064662089
vn 0.2585637994338182 -0.04440061362072041 -0.9649732364850603
vn 0.49950690323310454 -0.04440061362072041 -0.8651713351311275
vn 0.7064094370512413 -0.04440061362072041 -0.7064094370512416
vn 0.8651713351311273 -0.04440061362072041 -0.49950690323310487
vn 0.9649732364850602 -0.04440061362072041 -0.2585637994338186
vn 0.9990138064662089 -0.04440061362072041 -2.446878120785712e-16
vn 0.6401843996644802 -0.7682212795973754 0
vn 0.6183706452232841 -0.7682212795973754 0.16569191501069125
vn 0.5544159532159298 -0.7682212795973754 0.32009219983224
vn 0.45267873021259286 -0.7682212795973754 0.4526787302125928
vn 0.32009219983224013 -0.7682212795973754 0.5544159532159298
vn 0.16569191501069125 -0.7682212795973754 0.6183706452232841
vn 3.919998879565878e-17 -0.7682212795973754 0.6401843996644802
vn -0.16569191501069133 -0.7682212795973754 0.6183706452232841
vn -0.3200921998322399 -0.7682212795973754 0.5544159532159298
vn -0.4526787302125928 -0.7682212795973754 0.45267873021259286
vn -0.5544159532159298 -0.7682212795973754 0.32009219983224
vn -0.6183706452232841 -0.7682212795973754 0.16569191501069144
vn -0.6401843996644802 -0.7682212795973754 7.839997759131756e-17
vn -0.6183706452232841 -0.7682212795973754 -0.165691915010691
vn -0.5544159532159298 -0.7682212795973754 -0.32009219983224013
vn -0.452678730212593 -0.7682212795973754 -0.4526787302125928
vn -0.32009219983224035 -0.7682212795973754 -0.5544159532159297
vn -0.16569191501069117 -0.7682212795973754 -0.6183706452232841
vn -1.1759996638697631e-16 -0.7682212795973754 -0.6401843996644802
vn 0.16569191501069097 -0.7682212795973754 -0.6183706452232841
vn 0.32009219983224013 -0.7682212795973754 -0.5544159532159298
vn 0.4526787302125927 -0.7682212795973754 -0.452678730212593
vn 0.5544159532159297 -0.7682212795973754 -0.32009219983224035
vn 0.6183706452232841 -0.7682212795973754 -0.16569191501069122
vn 0.6401843996644802 -0.7682212795973754 -1.5679995518263512e-16
f 1/1/1 26/26/26 2/2/2
f 2/2/2 26/26/26 27/27/27
f 2/2/2 27/27/27 3/3/3
f 3/3/3 27/27/27 28/28/28
f 3/3/3 28/28/28 4/4/4
f 4/4/4 28/28/28 29/29/29
f 4/4/4 29/29/29 5/5/5
f 5/5/5 29/29/29 30/30/30
f 5/5/5 30/30/30 6/6/6
f 6/6/6 30/30/30 31/31/31
f 6/6/6 31/31/31 7/7/7
f 7/7/7 31/31/31 32/32/32
f 7/7/7 32/32/32 8/8/8
f 8/8/8 32/32/32 33/33/33
f 8/8/8 33/33/33 9/9/9
f 9/9/9 33/33/33 34/34/34
f 9/9/9 34/34/34 10/10/10
f 10/10/10 34/34/34 35/35/35
f 10/10/10 35/35/35 11/11/11
f 11/11/11 35/35/35 36/36/36
f 11/11/11 36/36/36 12/12/12
f 12/12/12 36/36/36 37/37/37
f 12/12/12 37/37/37 13/13/13
f 13/13/13 37/37/37 38/38/38
f 13/13/13 38/38/38 14/14/14
f 14/14/14 38/38/38 39/39/39
f 14/14/14 39/39/39 15/15/15
f 15/15/15 39/39/39 40/40/40
f 15/15/15 40/40/40 16/16/16
f 16/16/16 40/40/40 41/41/41
f 16/16/16 41/41/41 17/17/17
f 17/17/17 41/41/41 42/42/42
f 17/17/17 42/42/42 18/18/18
f 18/18/18 42/42/42 43/43/43
f 18/18/18 43/43/43 19/19/19
f 19/19/19 43/43/43 44/44/44
f 19/19/19 44/44/44 20/20/20
f 20/20/20 44/44/44 45/45/45
f 20/20/20 45/45/45 21/21/21
f 21/21/21 45/45/45 46/46/46
f 21/21/21 46/46/46 22/22/22
f 22/22/22 46/46/46 47/47/47
f 22/22/22 47/47/47 23/23/23
f 23/23/23 47/47/47 48/48/48
f 23/23/23 48/48/48 24/24/24
f 24/24/24 48/48/48 49/49/49
f 24/24/24 49/49/49 25/25/25
f 25/25/25 49/49/49 50/50/50
f 26/26/26 51/51/51 27/27/27
f 27/27/27 51/51/51 52/52/52
f 27/27/27 52/52/52 28/28/28
f 28/28/28 52/52/52 53/53/53
f 28/28/28 53/53/53 29/29/29
f 29/29/29 53/53/53 54/54/54
f 29/29/29 54/54/54 30/30/30
f 30/30/30 54/54/54 55/55/55
f 30/30/30 55/55/55 31/31/31
f 31/31/31 55/55/55 56/56/56
f 31/31/31 56/56/56 32/32/32
f 32/32/32 56/56/56 57/57/57
f 32/32/32 57/57/57 33/33/33
f 33/33/33 57/57/57 58/58/58
f 33/33/33 58/58/58 34/34/34
f 34/34/34 58/58/58 59/59/59
f 34/34/34 59/59/59 35/35/35
f 35/35/35 59/59/59 60/60/60
f 35/35/35 60/60/60 36/36/36
f 36/36/36 60/60/60 61/61/61
f 36/36/36 61/61/61 37/37/37
f 37/37/37 61/61/61 62/62/62
f 37/37/37 62/62/62 38/38/38
f 38/38/38 62/62/62 63/63/63
f 38/38/38 63/63/63 39/39/39
f 39/39/39 63/63/63 64/64/64
f 39/39/39 64/64/64 40/40/40
f 40/40/40 64/64/64 65/65/65
f 40/40/40 65/65/65 41/41/41
f 41/41/41 65/65/65 66/66/66
f 41/41/41 66/66/66 42/42/42
f 42/42/42 66/66/66 67/67/67
f 42/42/42 67/67/67 43/43/43
f 43/43/43 67/67/67 68/68/68
f 43/43/43 68/68/68 44/44/44
f 44/44/44 68/68/68 69/69/69
f 44/44/44 69/69/69 45/45/45
f 45/45/45 69/69/69 70/70/70
f 45/45/45 70/70/70 46/46/46
f 46/46/46 70/70/70 71/71/71
f 46/46/46 71/71/71 47/47/47
f 47/47/47 71/71/71 72/72/72
f 47/47/47 72/72/72 48/48/48
f 48/48/48 72/72/72 73/73/73
f 48/48/48 73/73/73 49/49/49
f 49/49/49 73/73/73 74/74/74
f 49/49/49 74/74/74 50/50/50
f 50/50/50 74/74/74 75/75/75
f 51/51/51 76/76/76 52/52/52
f 52/52/52 76/76/76 77/77/77
f 52/52/52 77/77/77 53/53/53
f 53/53/53 77/77/77 78/78/78
f 53/53/53 78/78/78 54/54/54
f 54/54/54 78/78/78 79/79/79
f 54/54/54 79/79/79 55/55/55
f 55/55/55 79/79/79 80/80/80
f 55/55/55 80/80/80 56/56/56
f 56/56/56 80/80/80 81/81/81
f 56/56/56 81/81/81 57/57/57
f 57/57/57 81/81/81 82/82/82
f 57/57/57 82/82/82 58/58/58
f 58/58/58 82/82/82 83/83/83
f 58/58/58 83/83/83 59/59/59
f 59/59/59 83/83/83 84/84/84
f 59/59/59 84/84/84 60/60/60
f 60/60/60 84/84/84 85/85/85
f 60/60/60 85/85/85 61/61/61
f 61/61/61 85/85/85 86/86/86
f 61/61/61 86/86/86 62/62/62
f 62/62/62 86/86/86 87/87/87
f 62/62/62 87/87/87 63/63/63
f 63/63/63 87/87/87 88/88/88
f 63/63/63 88/88/88 64/64/64
f 64/64/64 88/88/88 89/89/89
f 64/64/64 89/89/89 65/65/65
f 65/65/65 89/89/89 90/90/90
f 65/65/65 90/90/90 66/66/66
f 66/66/66 90/90/90 91/91/91
f 66/66/66 91/91/91 67/67/67
f 67/67/67 91/91/91 92/92/92
f 67/67/67 92/92/92 68/68/68
f 68/68/68 92/92/92 93/93/93
f 68/68/68 93/93/93 69/69/69
f 69/69/69 93/93/93 94/94/94
f 69/69/69 94/94/94 70/70/70
f 70/70/70 94/94/94 95/95/95
f 70/70/70 95/95/95 71/71/71
f 71/71/71 95/95/95 96/96/96
f 71/71/71 96/96/96 72/72/72
f 72/72/72 96/96/96 97/97/97
f 72/72/72 97/97/97 73/73/73
f 73/73/73 97/97/97 98/98/98
f 73/73/73 98/98/98 74/74/74
f 74/74/74 98/98/98 99/99/99
f 74/74/74 99/99/99 75/75/75
f 75/75/75 99/99/99 100/100/100
f 76/76/76 101/101/101 77/77/77
f 77/77/77 101/101/101 102/102/102
f 77/77/77 102/102/102 78/78/78
f 78/78/78 102/102/102 103/103/103
f 78/78/78 103/103/103 79/79/79
f 79/79/79 103/103/103 104/104/104
f 79/79/79 104/104/104 80/80/80
f 80/80/80 104/104/104 105/105/105
f 80/80/80 105/105/105 81/81/81
f 81/81/81 105/105/105 106/106/106
f 81/81/81 106/106/106 82/82/82
f 82/82/82 106/106/106 107/107/107
f 82/82/82 107/107/107 83/83/83
f 83/83/83 107/107/107 108/108/108
f 83/83/83 108/108/108 84/84/84
f 84/84/84 108/108/108 109/109/109
f 84/84/84 109/109/109 85/85/85
f 85/85/85 109/109/109 110/110/110
f 85/85/85 110/110/110 86/86/86
f 86/86/86 110/110/110 111/111/111
f 86/86/86 111/111/111 87/87/87
f 87/87/87 111/111/111 112/112/112
f 87/87/87 112/112/112 88/88/88
f 88/88/88 112/112/112 113/113/113
f 88/88/88 113/113/113 89/89/89
f 89/89/89 113/113/113 114/114/114
f 89/89/89 114/114/114 90/90/90
f 90/90/90 114/114/114 115/115/115
f 90/90/90 115/115/115 91/91/91
f 91/91/91 115/115/115 116/116/116
f 91/91/91 116/116/116 92/92/92
f 92/92/92 116/116/116 117/117/117
f 92/92/92 117/117/117 93/93/93
f 93/93/93 117/117/117 118/118/118
f 93/93/93 118/118/118 94/94/94
f 94/94/94 118/118/118 119/119/119
f 94/94/94 119/119/119 95/95/95
f 95/95/95 119/119/119 120/120/120
f 95/95/95 120/120/120 96/96/96
f 96/96/96 120/120/120 121/121/121
f 96/96/96 121/121/121 97/97/97
f 97/97/97 121/121/121 122/122/122
f 97/97/97 122/122/122 98/98/98
f 98/98/98 122/122/122 123/123/123
f 98/98/98 123/123/123 99/99/99
f 99/99/99 123/123/123 124/124/124
f 99/99/99 124/124/124 100/100/100
f 100/100/100 124/124/124 125/125/125
f 101/101/101 126/126/126 102/102/102
f 102/102/102 126/126/126 127/127/127
f 102/102/102 127/127/127 103/103/103
f 103/103/103 127/127/127 128/128/128
f 103/103/103 128/128/128 104/104/104
f 104/104/104 128/128/128 129/129/129
f 104/104/104 129/129/129 105/105/105
f 105/105/105 129/129/129 130/130/130
f 105/105/105 130/130/130 106/106/106
f 106/106/106 130/130/130 131/131/131
f 106/106/106 131/131/131 107/107/107
f 107/107/107 131/131/131 132/132/132
f 107/107/107 132/132/132 108/108/108
f 108/108/108 132/132/132 133/133/133
f 108/108/108 133/133/133 109/109/109
f 109/109/109 133/133/133 134/134/134
f 109/109/109 134/134/134 110/110/110
f 110/110/110 134/134/134 135/135/135
f 110/110/110 135/135/135 111/111/111
f 111/111/111 135/135/135 136/136/136
f 111/111/111 136/136/136 112/112/112
f 112/112/112 136/136/136 137/137/137
f 112/112/112 137/137/137 113/113/113
f 113/113/113 137/137/137 138/138/138
f 113/113/113 138/138/138 114/114/114
f 114/114/114 138/138/138 139/139/139
f 114/114/114 139/139/139 115/115/115
f 115/115/115 139/139/139 140/140/140
f 115/115/115 140/140/140 116/116/116
f 116/116/116 140/140/140 141/141/141
f 116/116/116 141/141/141 117/117/117
f 117/117/117 141/141/141 142/142/142
f 117/117/117 142/142/142 118/118/118
f 118/118/118 142/142/142 143/143/143
f 118/118/118 143/143/143 119/119/119
f 119/119/119 143/143/143 144/144/144
f 119/119/119 144/144/144 120/120/120
f 120/120/120 144/144/144 145/145/145
f 120/120/120 145/145/145 121/121/121
f 121/121/121 145/145/145 146/146/146
f 121/121/121 146/146/146 122/122/122
f 122/122/122 146/146/146 147/147/147
f 122/122/122 147/147/147 123/123/123
f 123/123/123 147/147/147 148/148/148
f 123/123/123 148/148/148 124/124/124
f 124/124/124 148/148/148 149/149/149
f 124/124/124 149/149/149 125/125/125
f 125/125/125 149/149/149 150/150/150
f 126/126/126 151/151/151 127/127/127
f 127/127/127 151/151/151 152/152/152
f 127/127/127 152/152/152 128/128/128
f 128/128/128 152/152/152 153/153/153
f 128/128/128 153/153/153 129/129/129
f 129/129/129 153/153/153 154/154/154
f 129/129/129 154/154/154 130/130/130
f 130/130/130 154/154/154 155/155/155
f 130/130/130 155/155/155 131/131/131
f 131/131/131 155/155/155 156/156/156
f 131/131/131 156/156/156 132/132/132
f 132/132/132 156/156/156 157/157/157
f 132/132/132 157/157/157 133/133/133
f 133/133/133 157/157/157 158/158/158
f 133/133/133 158/158/158 134/134/134
f 134/134/134 158/158/158 159/159/159
f 134/134/134 159/159/159 135/135/135
f 135/135/135 159/159/159 160/160/160
f 135/135/135 160/160/160 136/136/136
f 136/136/136 160/160/160 161/161/161
f 136/136/136 161/161/161 137/137/137
f 137/137/137 161/161/161 162/162/162
f 137/137/137 162/162/162 138/138/138
f 138/138/138 162/162/162 163/163/163
f 138/138/138 163/163/163 139/139/139
f 139/139/139 163/163/163 164/164/164
f 139/139/139 164/164/164 140/140/140
f 140/140/140 164/164/164 165/165/165
f 140/140/140 165/165/165 141/141/141
f 141/141/141 165/165/165 166/166/166
f 141/141/141 166/166/166 142/142/142
f 142/142/142 166/166/166 167/167/167
f 142/142/142 167/167/167 143/143/143
f 143/143/143 167/167/167 168/168/168
f 143/143/143 168/168/168 144/144/144
f 144/144/144 168/168/168 169/169/169
f 144/144/144 169/169/169 145/145/145
f 145/145/145 169/169/169 170/170/170
f 145/145/145 170/170/170 146/146/146
f 146/146/146 170/170/170 171/171/171
f 146/146/146 171/171/171 147/147/147
f 147/147/147 171/171/171 172/172/172
f 147/147/147 172/172/172 148/148/148
f 148/148/148 172/172/172 173/173/173
f 148/148/148 173/173/173 149/149/149
f 149/149/149 173/173/173 174/174/174
f 149/149/149 174/174/174 150/150/150
f 150/150/150 174/174/174 175/175/175
